<?xml version="1.0" standalone="no"?><!DOCTYPE svg PUBLIC "-//W3C//DTD SVG 1.1//EN" "http://www.w3.org/Graphics/SVG/1.1/DTD/svg11.dtd"><svg t="1583847963799" class="icon" viewBox="0 0 1024 1024" version="1.1" xmlns="http://www.w3.org/2000/svg" p-id="3014" xmlns:xlink="http://www.w3.org/1999/xlink" width="128" height="128"><defs><style type="text/css"></style></defs><path d="M896.078128 860.66002H163.756663V127.505188H127.921872v769.197966h768.156256z" fill="#e6e6e6" p-id="3015"></path><path d="M208.758494 699.403459l13.75056 8.333672 45.626856-75.211393h56.668973v-7.291964l59.169074 55.418922v52.91882h71.877925v-72.086267h-16.042319l52.710478-191.466124h3.125127l48.126958 141.255748h-15.625636v72.294608h72.086267v-53.752187l51.043744-37.293184v3.750152h52.085452l43.960122 79.169889h-6.875279v72.086266H812.533062v-72.086266h-24.375992l26.876094-270.427671h31.667955v-72.086266h-72.086267v72.086266h24.167651l-26.667752 270.427671h-6.458596l-43.960122-79.169889h1.875076v-72.086266h-72.294608v48.543642l-52.710479 38.543235h-37.918209L512.520855 470.019125h15.625635V397.932859h-72.294608v72.086266h20.000814l-52.710478 191.466124h-36.251475l-62.08586-58.335707v-42.918413h-72.086267v66.66938z" fill="#e6e6e6" p-id="3016"></path><path d="M453.143438 395.84944H529.188199v76.044761h-76.044761z" fill="#e6e6e6" p-id="3017"></path><path d="M252.718616 560.022787h76.044761v76.044761h-76.044761z" fill="#e6e6e6" p-id="3018"></path><path d="M650.02645 521.896236h76.044761V597.940997H650.02645zM527.938149 607.941404h76.04476v76.044761h-76.04476z" fill="#e6e6e6" p-id="3019"></path><path d="M383.973957 659.818515h76.044761v76.044761h-76.044761z" fill="#e6e6e6" p-id="3020"></path><path d="M740.030112 675.860834h76.044761v76.044761h-76.044761z" fill="#e6e6e6" p-id="3021"></path><path d="M772.114751 330.638454h76.044761v76.044761h-76.044761z" fill="#e6e6e6" p-id="3022"></path></svg>