<svg class="icon" viewBox="0 0 1024 1024" xmlns="http://www.w3.org/2000/svg" width="128" height="128"><defs><style/></defs><path d="M896.078 860.66H163.757V127.505h-35.835v769.198h768.156z"/><path d="M208.758 699.403l13.751 8.334 45.627-75.211h56.669v-7.292l59.169 55.419v52.919h71.878v-72.087H439.81l52.71-191.466h3.125l48.127 141.256h-15.626v72.294h72.087v-53.752l51.044-37.293v3.75h52.085l43.96 79.17h-6.875v72.086h72.086v-72.086h-24.376l26.876-270.428h31.668V332.93h-72.086v72.086h24.168l-26.668 270.428h-6.459l-43.96-79.17h1.875v-72.086h-72.294v48.544l-52.711 38.543h-37.918L512.52 470.019h15.625v-72.086h-72.294v72.086h20l-52.71 191.466h-36.251l-62.086-58.335V560.23h-72.086v66.67z"/><path d="M453.143 395.85h76.045v76.044h-76.045zM252.719 560.023h76.044v76.045H252.72zM650.026 521.896h76.045v76.045h-76.045zm-122.088 86.045h76.045v76.045h-76.045zM383.974 659.819h76.045v76.044h-76.045zM740.03 675.86h76.045v76.046H740.03zM772.115 330.638h76.045v76.045h-76.045z"/></svg>