<?xml version="1.0" standalone="no"?><!DOCTYPE svg PUBLIC "-//W3C//DTD SVG 1.1//EN" "http://www.w3.org/Graphics/SVG/1.1/DTD/svg11.dtd"><svg t="1584391219669" class="icon" viewBox="0 0 1024 1024" version="1.1" xmlns="http://www.w3.org/2000/svg" p-id="2394" xmlns:xlink="http://www.w3.org/1999/xlink" width="128" height="128"><defs><style type="text/css"></style></defs><path d="M955.072 89.664v633.6a35.2 35.2 0 0 1-35.2 35.2h-240.8V934.4a35.2 35.2 0 0 1-35.2 35.2h-492.8a35.2 35.2 0 0 1-35.2-35.2v-11.744h516.288V312.512H115.872v-11.744a35.2 35.2 0 0 1 35.2-35.232h492.832c15.328 0 28 9.92 32.832 23.552 1.312 3.68 2.336 7.488 2.336 11.648V711.52h229.056V101.376H391.872v-11.712a35.2 35.2 0 0 1 35.2-35.232h492.8a35.2 35.2 0 0 1 35.2 35.232z" fill="#e6e6e6" p-id="2395"></path><path d="M438.784 195.264h-46.944V148.32h46.944v46.944z m0 46.912h-46.944v46.944h46.944V242.176z m-276 164.192H115.872v-46.944h46.944v46.944z m0 46.944H115.872v46.944h46.944v-46.944z m0 93.856H115.872v46.976h46.944v-46.976z m0 93.888H115.872V688h46.944v-46.944z m0 93.888H115.872v46.944h46.944v-46.944z m-46.912 93.792v46.944h46.944v-46.944H115.872z" fill="#e6e6e6" p-id="2396"></path><path d="M391.872 195.264H344.96V148.32h46.912v46.944z m140.8 0V148.32h-93.856v46.944h93.856z m-140.8 46.912H344.96v46.944h46.912V242.176z m46.912 46.944h93.856V242.176h-93.856v46.944zM115.872 406.368H68.928v-46.944H115.84v46.944z m140.8 0v-46.944H162.784v46.944h93.888z m-140.8 46.944H68.928v46.944H115.84v-46.944z m46.912 46.944h93.888v-46.944H162.784v46.944z m-46.912 46.912H68.928v46.976H115.84v-46.976z m46.912 46.944h93.888v-46.976H162.784v46.976z m-46.912 46.944H68.928V688H115.84v-46.944zM162.784 688h93.888v-46.944H162.784V688z m-46.912 46.944H68.928v46.944H115.84v-46.944z m46.912 46.944h93.888v-46.944H162.784v46.944z m-46.912 46.848H68.928v46.944H115.84v-46.944z m140.8 0H162.784v46.944h93.888v-46.944z" fill="#e6e6e6" p-id="2397"></path><path d="M391.872 148.32V101.376h46.944v46.944h-46.944z m46.912 46.944h-46.944v46.944h46.944V195.264z m-322.912 164.16V312.512h46.944v46.944H115.872z m46.912 46.944H115.872v46.944h46.944v-46.944z m0 93.888H115.872v46.912h46.944v-46.912z m0 93.856H115.872v46.944h46.944v-46.944z m0 93.888H115.872v46.944h46.944V688z m0 93.888H115.872v46.88h46.944v-46.88z m0 93.792H115.872v46.944h46.944v-46.944z" fill="#e6e6e6" p-id="2398"></path><path d="M643.872 265.568h-64.288v-23.36h281.6v46.944h-184.48a34.816 34.816 0 0 0-32.832-23.584z m217.312 305.184v-46.944h-182.112v46.944h182.112z m0-187.744v-46.976h-182.112v46.976h182.112z m0 93.856v-46.944h-182.112v46.944h182.112z m0 187.712v-46.944h-182.112v46.944h182.112z m0-516.256h-281.6v46.944h281.6V148.32z m-276 258.048h-281.6v-46.944h281.6v46.944z m0 46.944h-281.6v46.944h281.6v-46.944z m0 93.856h-281.6v46.976h281.6v-46.976z m0 93.888h-281.6V688h281.6v-46.944z m0 93.888h-281.6v46.944h281.6v-46.944z m0 93.792H303.616v46.944h281.568v-46.944z" fill="#e6e6e6" p-id="2399"></path></svg>