<svg class="icon" viewBox="0 0 1024 1024" xmlns="http://www.w3.org/2000/svg" width="128" height="128"><defs><style/></defs><path d="M955.072 89.664v633.6a35.2 35.2 0 0 1-35.2 35.2h-240.8V934.4a35.2 35.2 0 0 1-35.2 35.2h-492.8a35.2 35.2 0 0 1-35.2-35.2v-11.744H632.16V312.512H115.872v-11.744a35.2 35.2 0 0 1 35.2-35.232h492.832c15.328 0 28 9.92 32.832 23.552 1.312 3.68 2.336 7.488 2.336 11.648V711.52h229.056V101.376H391.872V89.664a35.2 35.2 0 0 1 35.2-35.232h492.8a35.2 35.2 0 0 1 35.2 35.232z"/><path d="M438.784 195.264H391.84V148.32h46.944v46.944zm0 46.912H391.84v46.944h46.944v-46.944zm-276 164.192h-46.912v-46.944h46.944v46.944zm0 46.944h-46.912v46.944h46.944v-46.944zm0 93.856h-46.912v46.976h46.944v-46.976zm0 93.888h-46.912V688h46.944v-46.944zm0 93.888h-46.912v46.944h46.944v-46.944zm-46.912 93.792v46.944h46.944v-46.944h-46.944z"/><path d="M391.872 195.264H344.96V148.32h46.912v46.944zm140.8 0V148.32h-93.856v46.944h93.856zm-140.8 46.912H344.96v46.944h46.912v-46.944zm46.912 46.944h93.856v-46.944h-93.856v46.944zM115.872 406.368H68.928v-46.944h46.912v46.944zm140.8 0v-46.944h-93.888v46.944h93.888zm-140.8 46.944H68.928v46.944h46.912v-46.944zm46.912 46.944h93.888v-46.944h-93.888v46.944zm-46.912 46.912H68.928v46.976h46.912v-46.976zm46.912 46.944h93.888v-46.976h-93.888v46.976zm-46.912 46.944H68.928V688h46.912v-46.944zM162.784 688h93.888v-46.944h-93.888V688zm-46.912 46.944H68.928v46.944h46.912v-46.944zm46.912 46.944h93.888v-46.944h-93.888v46.944zm-46.912 46.848H68.928v46.944h46.912v-46.944zm140.8 0h-93.888v46.944h93.888v-46.944z"/><path d="M391.872 148.32v-46.944h46.944v46.944h-46.944zm46.912 46.944H391.84v46.944h46.944v-46.944zm-322.912 164.16v-46.912h46.944v46.944h-46.944zm46.912 46.944h-46.912v46.944h46.944v-46.944zm0 93.888h-46.912v46.912h46.944v-46.912zm0 93.856h-46.912v46.944h46.944v-46.944zm0 93.888h-46.912v46.944h46.944V688zm0 93.888h-46.912v46.88h46.944v-46.88zm0 93.792h-46.912v46.944h46.944V875.68zM643.872 265.568h-64.288v-23.36h281.6v46.944h-184.48a34.816 34.816 0 0 0-32.832-23.584zm217.312 305.184v-46.944H679.072v46.944h182.112zm0-187.744v-46.976H679.072v46.976h182.112zm0 93.856V429.92H679.072v46.944h182.112zm0 187.712v-46.944H679.072v46.944h182.112zm0-516.256h-281.6v46.944h281.6V148.32zm-276 258.048h-281.6v-46.944h281.6v46.944zm0 46.944h-281.6v46.944h281.6v-46.944zm0 93.856h-281.6v46.976h281.6v-46.976zm0 93.888h-281.6V688h281.6v-46.944zm0 93.888h-281.6v46.944h281.6v-46.944zm0 93.792H303.616v46.944h281.568v-46.944z"/></svg>